<?xml version="1.0" standalone="no"?>
<!DOCTYPE svg PUBLIC "-//W3C//DTD SVG 20010904//EN" "http://www.w3.org/TR/2001/REC-SVG-20010904/DTD/svg10.dtd">
<!-- Created using Krita: https://krita.org -->
<svg xmlns="http://www.w3.org/2000/svg" 
    xmlns:xlink="http://www.w3.org/1999/xlink"
    xmlns:krita="http://krita.org/namespaces/svg/krita"
    xmlns:sodipodi="http://sodipodi.sourceforge.net/DTD/sodipodi-0.dtd"
    width="1440pt"
    height="1440pt"
    viewBox="0 0 1440 1440">
<defs/>
<path id="shape0" transform="translate(89.2799965661699, -72.5952217223587)" fill="#8d94a0" fill-rule="evenodd" stroke="#8d94a0" stroke-width="8.6688" stroke-linecap="square" stroke-linejoin="bevel" d="M0 9.23522L4.39751 540.983C55.988 895.328 220.942 1068.43 499.259 1060.28C777.576 1052.14 936.421 890.576 975.793 575.603L1014.49 577.639L1024.67 463.597L981.902 461.561C1038.92 347.518 1084.4 283.709 1118.35 270.133C1152.29 256.556 1237.82 250.447 1374.94 251.804L1385.12 5.39179L1087.8 11.5012C962.1 55.0423 881.32 102.56 845.459 154.054C791.667 231.295 739.562 286.424 729.38 361.774C722.592 412.006 719.876 441.196 721.234 449.342L660.14 455.451L654.031 538.946L713.088 557.274C656.067 736.629 573.93 815.069 466.676 792.595C305.795 758.885 285.045 595.353 265.065 477.852C251.746 399.518 249.709 242.032 258.956 5.39179C270.958 -2.90708 184.64 -1.62594 0 9.23522Z" sodipodi:nodetypes="cczcccczccczzcccczzcc"/><path id="shape1" transform="translate(1068.94391641215, 354.345350188203)" fill="#acd6f8" fill-rule="evenodd" stroke="#acd6f8" stroke-width="8.6688" stroke-linecap="square" stroke-linejoin="bevel" d="M10.3839 0C44.325 -7.57912e-14 64.6897 14.9341 71.4779 44.8023C81.6602 89.6046 22.6027 439.877 22.6027 472.46C22.6027 494.183 25.318 515.226 30.7485 535.591C26.6756 568.174 19.2086 574.284 8.34741 553.919C-7.94433 523.372 4.27447 513.19 6.31094 464.315C7.66858 431.731 16.4933 327.192 32.785 150.699L42.9674 48.8752L8.34741 30.547C6.98976 29.1894 7.66858 19.007 10.3839 0Z" sodipodi:nodetypes="czzczzcccc"/><ellipse id="shape2" transform="translate(1054.08, 982.08)" rx="25.9200000000001" ry="31.68" cx="25.9200000000001" cy="31.68" fill="#acd6f8" fill-rule="evenodd" stroke="#acd6f8" stroke-width="8.6688" stroke-linecap="square" stroke-linejoin="bevel"/><ellipse id="shape3" transform="translate(1054.08, 1071.36)" rx="30.24" ry="21.5999999999999" cx="30.24" cy="21.5999999999999" fill="#acd6f8" fill-rule="evenodd" stroke="#acd6f8" stroke-width="8.6688" stroke-linecap="square" stroke-linejoin="bevel"/><ellipse id="shape4" transform="translate(1059.84, 1189.44)" rx="14.4" ry="38.88" cx="14.4" cy="38.88" fill="#acd6f8" fill-rule="evenodd" stroke="#acd6f8" stroke-width="8.6688" stroke-linecap="square" stroke-linejoin="bevel"/><path id="shape5" transform="translate(486.715739626324, 971.140453281604)" fill="#acd6f8" fill-rule="evenodd" stroke="#acd6f8" stroke-width="8.6688" stroke-linecap="square" stroke-linejoin="bevel" d="M0 12.4734C21.7223 31.4804 32.5835 52.5239 32.5835 75.6039C32.5835 98.6838 29.1894 119.727 22.4011 138.734C24.777 150.614 30.7167 155.196 40.2202 152.48C54.4755 148.408 40.2202 104.624 48.3661 80.1859C56.512 55.7483 52.9482 38.9474 79.4222 38.9474C105.896 38.9474 112.006 49.1298 142.553 34.8745C162.917 25.371 193.161 13.831 233.284 0.254558C224.387 -1.10309 146.626 2.96985 0 12.4734Z" sodipodi:nodetypes="czczzzzcc"/>
</svg>
