<?xml version="1.0" standalone="no"?>
<!DOCTYPE svg PUBLIC "-//W3C//DTD SVG 20010904//EN" "http://www.w3.org/TR/2001/REC-SVG-20010904/DTD/svg10.dtd">
<!-- Created using Krita: https://krita.org -->
<svg xmlns="http://www.w3.org/2000/svg" 
    xmlns:xlink="http://www.w3.org/1999/xlink"
    xmlns:krita="http://krita.org/namespaces/svg/krita"
    xmlns:sodipodi="http://sodipodi.sourceforge.net/DTD/sodipodi-0.dtd"
    width="1440pt"
    height="1440pt"
    viewBox="0 0 1440 1440">
<defs/>
<path id="shape0" transform="translate(177.172669256106, 393.038220303775)" fill="#e6c7a9" fill-rule="evenodd" stroke="#e6c7a9" stroke-width="8.6688" stroke-linecap="square" stroke-linejoin="bevel" d="M963.249 435.804C982.256 484.679 986.329 515.905 975.468 529.482C959.176 549.846 894.009 551.883 873.645 537.627C860.068 528.124 851.243 521.336 847.17 517.263C879.754 557.992 882.469 583.787 855.316 594.648C814.587 610.94 782.004 619.086 757.566 608.904C741.274 602.116 731.092 596.006 727.019 590.576C746.026 609.583 746.026 626.553 727.019 641.487C708.012 656.421 684.932 663.21 657.779 661.852C622.625 709.369 584.308 719.552 542.827 692.399C501.347 665.246 374.71 581.072 162.917 439.877C143.91 411.973 131.692 386.177 126.261 362.491C120.83 338.805 78.7434 300.791 0 248.449L189.391 0L230.121 34.6199C288.5 67.2034 324.477 80.1011 338.054 73.3128C358.418 63.1305 419.512 63.1305 435.804 75.3493C452.096 87.5681 452.096 87.5681 963.249 435.804Z" sodipodi:nodetypes="czzczzczczczccczcc"/><path id="shape1" transform="translate(-65.1669588068435, 32.5834794034217)" fill="#ca8096" fill-rule="evenodd" stroke="#ca8096" stroke-width="8.6688" stroke-linecap="square" stroke-linejoin="bevel" d="M429.695 356.382C289.857 237.588 150.02 118.794 10.1823 0C9.53262 31.836 8.88291 63.672 8.2332 95.508C5.76575 216.413 3.29831 337.317 0.830865 458.222C0.55391 471.793 0.276955 485.364 0 498.935C61.094 538.985 122.188 579.036 183.282 619.086C211.793 629.947 232.836 629.947 246.413 619.086C266.777 602.794 266.777 602.794 429.695 356.382Z" sodipodi:nodetypes="cccccccc"/><path id="shape2" transform="translate(463.68, 410.4)" fill="#ffd9d1" fill-rule="evenodd" stroke="#ffd9d1" stroke-width="8.6688" stroke-linecap="square" stroke-linejoin="bevel" d="M565.92 2.88L506.88 51.84L347.04 5.76C327.84 -1.92 303.36 -1.92 273.6 5.76C243.84 13.44 204.96 16.32 156.96 14.4C118.56 20.16 92.16 45.12 77.76 89.28C63.36 133.44 37.44 172.32 0 205.92C35.6261 237.973 66.3461 249.973 92.16 241.92C116.939 241.142 136.139 230.582 149.76 210.24C163.381 189.898 184.501 167.818 213.12 144C227.329 136.686 241.729 136.686 256.32 144L668.16 416.16L799.2 328.32C799.2 328.32 721.44 219.84 565.92 2.88Z" sodipodi:nodetypes="ccczczcczccccc"/><path id="shape3" transform="translate(327.78947368421, 792.636279069767)" fill="#ffd9d1" fill-rule="evenodd" stroke="#ffd9d1" stroke-width="8.6688" stroke-linecap="square" stroke-linejoin="bevel" d="M341.811 261.444C315.891 304.644 288.531 316.164 259.731 296.004C230.931 275.844 220.851 260.484 229.491 249.924C199.731 245.124 179.571 237.444 169.011 226.884C158.451 216.324 150.771 199.044 145.971 175.044C106.611 180.804 82.6105 173.604 73.9705 153.444C65.3305 133.284 63.4105 113.604 68.2105 94.4037C33.6505 108.804 12.5305 107.844 4.85053 91.5237C-2.82947 75.2037 -1.38947 54.0837 9.17053 28.1637C33.1705 0.323721 55.2505 -6.87628 75.4105 6.56372C95.5705 20.0037 102.771 36.3237 97.0105 55.5237C125.811 50.7237 145.011 51.6837 154.611 58.4037C169.011 68.4837 190.611 103.044 189.171 117.444C188.211 127.044 192.531 124.644 202.131 110.244C233.811 95.8437 256.371 96.8037 269.811 113.124C283.251 129.444 290.451 151.044 291.411 177.924C313.491 175.044 329.331 178.404 338.931 188.004C353.331 202.404 354.771 209.604 354.771 225.444C354.771 241.284 354.771 241.284 341.811 261.444Z" sodipodi:nodetypes="czczczczczczzczczcc"/><path id="shape4" transform="translate(1011.40363636364, -30.5470119407078)" fill="#8185c0" fill-rule="evenodd" stroke="#8185c0" stroke-width="8.6688" stroke-linecap="square" stroke-linejoin="bevel" d="M16.7564 446.707C1.39636 438.067 -3.40364 426.067 2.35636 410.707C8.11636 395.347 26.3564 379.507 57.0764 363.187C34.44 308.417 38.0559 257.953 67.9241 211.793C97.7923 165.633 158.208 97.0716 249.17 6.1094L428.596 0L469.108 667.961C425.664 723.018 393.759 750.547 373.394 750.547C353.03 750.547 343.526 750.547 344.884 750.547L300.081 790.149C286.505 797.544 271.571 792.792 255.279 775.894C230.842 750.547 230.842 733.128 16.7564 446.707Z" sodipodi:nodetypes="czczccczcccc"/>
</svg>
