<?xml version="1.0" standalone="no"?>
<!DOCTYPE svg PUBLIC "-//W3C//DTD SVG 20010904//EN" "http://www.w3.org/TR/2001/REC-SVG-20010904/DTD/svg10.dtd">
<!-- Created using Krita: https://krita.org -->
<svg xmlns="http://www.w3.org/2000/svg" 
    xmlns:xlink="http://www.w3.org/1999/xlink"
    xmlns:krita="http://krita.org/namespaces/svg/krita"
    xmlns:sodipodi="http://sodipodi.sourceforge.net/DTD/sodipodi-0.dtd"
    width="1440pt"
    height="1440pt"
    viewBox="0 0 1440 1440">
<defs/>
<path id="shape0" transform="translate(476.546016504126, 234.397658256263)" fill="#ffe409" fill-rule="evenodd" stroke="#ffe409" stroke-width="8.6688" stroke-linecap="square" stroke-linejoin="bevel" d="M22.6317 362.767C42.7247 136.162 145.422 15.6042 330.725 1.09257C516.027 -13.4191 635.469 116.627 689.05 391.232L776.12 424.72C805.143 438.116 804.027 451.511 772.771 464.907C741.515 478.302 695.748 491.697 635.469 505.093C490.353 528.534 379.841 514.581 303.934 463.232C190.074 386.209 121.422 399.604 99.6549 406.302C85.1433 410.767 65.0503 420.814 39.3758 436.441C9.23631 447.604 -3.6009 433.651 0.864216 394.581C4.21305 406.302 10.9107 344.348 22.6317 362.767Z" sodipodi:nodetypes="czcczczzccc"/><path id="shape1" transform="translate(741.767441860465, 642.440930232558)" fill="#ead426" fill-rule="evenodd" stroke="#ead426" stroke-width="8.6688" stroke-linecap="square" stroke-linejoin="bevel" d="M0 36.8372C73.6744 65.8605 141.767 70.3256 204.279 50.2326C266.791 30.1395 338.233 13.3953 418.605 0L443.721 0L530.791 35.1628C565.395 54.1395 558.698 70.8837 510.698 85.3953C438.698 107.163 221.023 159.07 117.209 110.512C13.3953 61.9535 13.3953 61.9535 0 36.8372Z" sodipodi:nodetypes="czccczcc"/><path id="shape2" transform="translate(534.139534883721, 289.6639124487)" fill="#ead426" fill-rule="evenodd" stroke="#ead426" stroke-width="8.6688" stroke-linecap="square" stroke-linejoin="bevel" d="M0 322.637C45.7674 288.033 103.814 277.986 174.14 292.498C279.628 314.265 408.558 351.103 458.791 274.079C492.279 222.731 472.186 152.405 398.512 63.1026C303.628 -6.1067 221.581 -18.3858 152.372 26.2654C48.5581 93.2421 48.5581 93.2421 0 322.637Z" sodipodi:nodetypes="czzccc"/><ellipse id="shape3" transform="translate(362.612093023256, 296.64)" rx="262.08" ry="262.08" cx="262.08" cy="262.08" fill="none" stroke="#b6b8dc" stroke-width="61.5744" stroke-linecap="square" stroke-linejoin="bevel"/><path id="shape4" transform="translate(155.609302325581, 746.254883720931)" fill="#b6b8dc" fill-rule="evenodd" stroke="#b6b8dc" stroke-width="61.5744" stroke-linecap="square" stroke-linejoin="bevel" d="M273.042 0L0.111628 385.116C-1.00465 408.558 6.25116 424.186 21.8791 432C37.507 439.814 56.4837 424.186 78.8093 385.116L328.298 31.814C328.298 31.814 309.879 21.2093 273.042 0Z" sodipodi:nodetypes="cczccc"/>
</svg>
